<mxfile host="app.diagrams.net" agent="Mozilla/5.0 (Windows NT 10.0; Win64; x64) AppleWebKit/537.36 (KHTML, like Gecko) Chrome/131.0.0.0 Safari/537.36" version="26.0.4">
  <diagram name="Página-1" id="W8_GP7UOTws-HAbCmVQn">
    <mxGraphModel dx="2514" dy="2037" grid="1" gridSize="10" guides="1" tooltips="1" connect="1" arrows="1" fold="1" page="1" pageScale="1" pageWidth="827" pageHeight="1169" math="0" shadow="0">
      <root>
        <mxCell id="0" />
        <mxCell id="1" parent="0" />
        <mxCell id="ivZ9lT4VuPYU5OSlLf_5-11" style="edgeStyle=orthogonalEdgeStyle;rounded=0;orthogonalLoop=1;jettySize=auto;html=1;" edge="1" parent="1" source="ivZ9lT4VuPYU5OSlLf_5-1" target="ivZ9lT4VuPYU5OSlLf_5-6">
          <mxGeometry relative="1" as="geometry" />
        </mxCell>
        <mxCell id="ivZ9lT4VuPYU5OSlLf_5-1" value="Obtener Banco&lt;div&gt;(desde bbva&lt;span style=&quot;background-color: transparent; color: light-dark(rgb(0, 0, 0), rgb(255, 255, 255));&quot;&gt;)&lt;/span&gt;&lt;/div&gt;" style="rounded=1;whiteSpace=wrap;html=1;" vertex="1" parent="1">
          <mxGeometry x="100" y="400" width="120" height="60" as="geometry" />
        </mxCell>
        <mxCell id="ivZ9lT4VuPYU5OSlLf_5-7" style="edgeStyle=orthogonalEdgeStyle;rounded=0;orthogonalLoop=1;jettySize=auto;html=1;exitX=1;exitY=0.5;exitDx=0;exitDy=0;entryX=0;entryY=0.25;entryDx=0;entryDy=0;" edge="1" parent="1" source="ivZ9lT4VuPYU5OSlLf_5-2" target="ivZ9lT4VuPYU5OSlLf_5-5">
          <mxGeometry relative="1" as="geometry" />
        </mxCell>
        <mxCell id="ivZ9lT4VuPYU5OSlLf_5-2" value="Obtener Comercio&lt;div&gt;(desde comercio)&lt;/div&gt;" style="rounded=1;whiteSpace=wrap;html=1;" vertex="1" parent="1">
          <mxGeometry x="100" y="160" width="120" height="60" as="geometry" />
        </mxCell>
        <mxCell id="ivZ9lT4VuPYU5OSlLf_5-9" style="edgeStyle=orthogonalEdgeStyle;rounded=0;orthogonalLoop=1;jettySize=auto;html=1;" edge="1" parent="1" source="ivZ9lT4VuPYU5OSlLf_5-3" target="ivZ9lT4VuPYU5OSlLf_5-6">
          <mxGeometry relative="1" as="geometry" />
        </mxCell>
        <mxCell id="ivZ9lT4VuPYU5OSlLf_5-33" style="edgeStyle=orthogonalEdgeStyle;rounded=0;orthogonalLoop=1;jettySize=auto;html=1;" edge="1" parent="1" source="ivZ9lT4VuPYU5OSlLf_5-3" target="ivZ9lT4VuPYU5OSlLf_5-5">
          <mxGeometry relative="1" as="geometry" />
        </mxCell>
        <mxCell id="ivZ9lT4VuPYU5OSlLf_5-3" value="Obtener Tarjeta&lt;div&gt;(desde tarjeta)&lt;/div&gt;" style="rounded=1;whiteSpace=wrap;html=1;" vertex="1" parent="1">
          <mxGeometry x="100" y="240" width="120" height="60" as="geometry" />
        </mxCell>
        <mxCell id="ivZ9lT4VuPYU5OSlLf_5-10" style="edgeStyle=orthogonalEdgeStyle;rounded=0;orthogonalLoop=1;jettySize=auto;html=1;" edge="1" parent="1" source="ivZ9lT4VuPYU5OSlLf_5-4" target="ivZ9lT4VuPYU5OSlLf_5-6">
          <mxGeometry relative="1" as="geometry" />
        </mxCell>
        <mxCell id="ivZ9lT4VuPYU5OSlLf_5-4" value="Obtener Gastos de Tarjeta&lt;div&gt;(desde servicios tarjeta)&lt;/div&gt;" style="rounded=1;whiteSpace=wrap;html=1;" vertex="1" parent="1">
          <mxGeometry x="100" y="320" width="120" height="60" as="geometry" />
        </mxCell>
        <mxCell id="ivZ9lT4VuPYU5OSlLf_5-80" style="edgeStyle=orthogonalEdgeStyle;rounded=0;orthogonalLoop=1;jettySize=auto;html=1;entryX=0.5;entryY=0;entryDx=0;entryDy=0;" edge="1" parent="1" source="ivZ9lT4VuPYU5OSlLf_5-5" target="ivZ9lT4VuPYU5OSlLf_5-34">
          <mxGeometry relative="1" as="geometry">
            <Array as="points">
              <mxPoint x="680" y="130" />
              <mxPoint x="680" y="-35" />
              <mxPoint x="1010" y="-35" />
            </Array>
          </mxGeometry>
        </mxCell>
        <mxCell id="ivZ9lT4VuPYU5OSlLf_5-5" value="Payway Vs Comercio" style="shape=parallelogram;perimeter=parallelogramPerimeter;whiteSpace=wrap;html=1;fixedSize=1;" vertex="1" parent="1">
          <mxGeometry x="413" y="100" width="180" height="60" as="geometry" />
        </mxCell>
        <mxCell id="ivZ9lT4VuPYU5OSlLf_5-77" style="edgeStyle=orthogonalEdgeStyle;rounded=0;orthogonalLoop=1;jettySize=auto;html=1;" edge="1" parent="1" source="ivZ9lT4VuPYU5OSlLf_5-6" target="ivZ9lT4VuPYU5OSlLf_5-40">
          <mxGeometry relative="1" as="geometry" />
        </mxCell>
        <mxCell id="ivZ9lT4VuPYU5OSlLf_5-6" value="Payway Vs Banco" style="shape=parallelogram;perimeter=parallelogramPerimeter;whiteSpace=wrap;html=1;fixedSize=1;" vertex="1" parent="1">
          <mxGeometry x="324" y="350" width="180" height="60" as="geometry" />
        </mxCell>
        <mxCell id="ivZ9lT4VuPYU5OSlLf_5-22" value="&lt;div&gt;Variables Globales:&lt;/div&gt;&lt;div&gt;&lt;ul&gt;&lt;li&gt;FECHA_DESDE&lt;/li&gt;&lt;li&gt;FECHA_HASTA&lt;/li&gt;&lt;/ul&gt;&lt;/div&gt;" style="shape=internalStorage;whiteSpace=wrap;html=1;backgroundOutline=1;" vertex="1" parent="1">
          <mxGeometry x="-240" y="490" width="150" height="70" as="geometry" />
        </mxCell>
        <mxCell id="ivZ9lT4VuPYU5OSlLf_5-31" style="edgeStyle=orthogonalEdgeStyle;rounded=0;orthogonalLoop=1;jettySize=auto;html=1;" edge="1" parent="1" source="ivZ9lT4VuPYU5OSlLf_5-23" target="ivZ9lT4VuPYU5OSlLf_5-24">
          <mxGeometry relative="1" as="geometry" />
        </mxCell>
        <mxCell id="ivZ9lT4VuPYU5OSlLf_5-23" value="Main" style="ellipse;whiteSpace=wrap;html=1;aspect=fixed;" vertex="1" parent="1">
          <mxGeometry x="-240" y="280" width="80" height="80" as="geometry" />
        </mxCell>
        <mxCell id="ivZ9lT4VuPYU5OSlLf_5-26" style="edgeStyle=orthogonalEdgeStyle;rounded=0;orthogonalLoop=1;jettySize=auto;html=1;entryX=0;entryY=0.5;entryDx=0;entryDy=0;" edge="1" parent="1" source="ivZ9lT4VuPYU5OSlLf_5-24" target="ivZ9lT4VuPYU5OSlLf_5-2">
          <mxGeometry relative="1" as="geometry" />
        </mxCell>
        <mxCell id="ivZ9lT4VuPYU5OSlLf_5-28" style="edgeStyle=orthogonalEdgeStyle;rounded=0;orthogonalLoop=1;jettySize=auto;html=1;entryX=0;entryY=0.5;entryDx=0;entryDy=0;" edge="1" parent="1" source="ivZ9lT4VuPYU5OSlLf_5-24" target="ivZ9lT4VuPYU5OSlLf_5-3">
          <mxGeometry relative="1" as="geometry" />
        </mxCell>
        <mxCell id="ivZ9lT4VuPYU5OSlLf_5-29" style="edgeStyle=orthogonalEdgeStyle;rounded=0;orthogonalLoop=1;jettySize=auto;html=1;entryX=0;entryY=0.5;entryDx=0;entryDy=0;" edge="1" parent="1" source="ivZ9lT4VuPYU5OSlLf_5-24" target="ivZ9lT4VuPYU5OSlLf_5-4">
          <mxGeometry relative="1" as="geometry" />
        </mxCell>
        <mxCell id="ivZ9lT4VuPYU5OSlLf_5-30" style="edgeStyle=orthogonalEdgeStyle;rounded=0;orthogonalLoop=1;jettySize=auto;html=1;entryX=0;entryY=0.5;entryDx=0;entryDy=0;" edge="1" parent="1" source="ivZ9lT4VuPYU5OSlLf_5-24" target="ivZ9lT4VuPYU5OSlLf_5-1">
          <mxGeometry relative="1" as="geometry" />
        </mxCell>
        <mxCell id="ivZ9lT4VuPYU5OSlLf_5-86" style="edgeStyle=orthogonalEdgeStyle;rounded=0;orthogonalLoop=1;jettySize=auto;html=1;entryX=0;entryY=0.5;entryDx=0;entryDy=0;" edge="1" parent="1" source="ivZ9lT4VuPYU5OSlLf_5-24" target="ivZ9lT4VuPYU5OSlLf_5-85">
          <mxGeometry relative="1" as="geometry" />
        </mxCell>
        <mxCell id="ivZ9lT4VuPYU5OSlLf_5-24" value="Instanciar:&lt;div&gt;&lt;ul&gt;&lt;li&gt;&lt;li&gt;FECHA_DESDE&lt;/li&gt;&lt;li&gt;FECHA_HASTA&lt;/li&gt;&lt;/li&gt;&lt;/ul&gt;&lt;/div&gt;" style="shape=process;whiteSpace=wrap;html=1;backgroundOutline=1;" vertex="1" parent="1">
          <mxGeometry x="-130" y="280" width="180" height="80" as="geometry" />
        </mxCell>
        <mxCell id="ivZ9lT4VuPYU5OSlLf_5-32" value="&lt;div&gt;Documentos:&lt;/div&gt;&lt;div&gt;&lt;ul&gt;&lt;li&gt;bbva&lt;/li&gt;&lt;li&gt;comercio&lt;/li&gt;&lt;li&gt;conciliacion tarjeta&lt;/li&gt;&lt;li&gt;servicios tarjeta&lt;/li&gt;&lt;/ul&gt;&lt;/div&gt;" style="shape=internalStorage;whiteSpace=wrap;html=1;backgroundOutline=1;" vertex="1" parent="1">
          <mxGeometry x="-240" y="380" width="150" height="100" as="geometry" />
        </mxCell>
        <mxCell id="ivZ9lT4VuPYU5OSlLf_5-38" value="" style="group;fillColor=#dae8fc;strokeColor=#6c8ebf;" vertex="1" connectable="0" parent="1">
          <mxGeometry x="710" y="-15" width="600" height="290" as="geometry" />
        </mxCell>
        <mxCell id="ivZ9lT4VuPYU5OSlLf_5-81" style="edgeStyle=orthogonalEdgeStyle;rounded=0;orthogonalLoop=1;jettySize=auto;html=1;" edge="1" parent="ivZ9lT4VuPYU5OSlLf_5-38" source="ivZ9lT4VuPYU5OSlLf_5-34">
          <mxGeometry relative="1" as="geometry">
            <mxPoint x="300" y="125" as="targetPoint" />
          </mxGeometry>
        </mxCell>
        <mxCell id="ivZ9lT4VuPYU5OSlLf_5-34" value="Para Payway y Comercio tomar los registros cuya fecha de devengado esté comprendida entre las variables FECHA_DESDE y FECHA_HASTA.&lt;br&gt;&lt;br&gt;En comercio no se consideran registros cuya forma de pago sea efectivo o mercado pago" style="rounded=0;whiteSpace=wrap;html=1;" vertex="1" parent="ivZ9lT4VuPYU5OSlLf_5-38">
          <mxGeometry x="155" width="290" height="100" as="geometry" />
        </mxCell>
        <mxCell id="ivZ9lT4VuPYU5OSlLf_5-84" style="edgeStyle=orthogonalEdgeStyle;rounded=0;orthogonalLoop=1;jettySize=auto;html=1;" edge="1" parent="ivZ9lT4VuPYU5OSlLf_5-38" source="ivZ9lT4VuPYU5OSlLf_5-35" target="ivZ9lT4VuPYU5OSlLf_5-36">
          <mxGeometry relative="1" as="geometry" />
        </mxCell>
        <mxCell id="ivZ9lT4VuPYU5OSlLf_5-35" value="Una vez filtrados ambos resúmenes, estos se deben conbinar habiendo previamente sumarizado Payway y Comercio en su monto bruto, habiendo sumarizado por fecha de devengado&amp;nbsp;" style="rounded=0;whiteSpace=wrap;html=1;" vertex="1" parent="ivZ9lT4VuPYU5OSlLf_5-38">
          <mxGeometry x="115" y="130" width="370" height="60" as="geometry" />
        </mxCell>
        <mxCell id="ivZ9lT4VuPYU5OSlLf_5-36" value="Para la obtención de diferencias se crea una nueva columna en la tabla de staging llamada &quot;Diferencia&quot; que comparará los respectivos montos burtos de payway menos los de comercio.&lt;div&gt;El Dataframe resultante se retornará como tabla de staging (falta filtrar registros con diferencia distinta de 0)&lt;/div&gt;" style="rounded=0;whiteSpace=wrap;html=1;" vertex="1" parent="ivZ9lT4VuPYU5OSlLf_5-38">
          <mxGeometry y="220" width="600" height="70" as="geometry" />
        </mxCell>
        <mxCell id="ivZ9lT4VuPYU5OSlLf_5-43" value="" style="group;fillColor=#dae8fc;strokeColor=#6c8ebf;" vertex="1" connectable="0" parent="1">
          <mxGeometry x="760" y="450" width="530" height="345" as="geometry" />
        </mxCell>
        <mxCell id="ivZ9lT4VuPYU5OSlLf_5-78" style="edgeStyle=orthogonalEdgeStyle;rounded=0;orthogonalLoop=1;jettySize=auto;html=1;entryX=0.5;entryY=0;entryDx=0;entryDy=0;" edge="1" parent="ivZ9lT4VuPYU5OSlLf_5-43" source="ivZ9lT4VuPYU5OSlLf_5-40" target="ivZ9lT4VuPYU5OSlLf_5-41">
          <mxGeometry relative="1" as="geometry" />
        </mxCell>
        <mxCell id="ivZ9lT4VuPYU5OSlLf_5-40" value="Para Ingresos Payway, Egresos Payway&amp;nbsp;y Banco tomar los registros cuya fecha de devengado esté comprendida entre las variables FECHA_DESDE y FECHA_HASTA.&lt;br&gt;&lt;br&gt;En Banco solo se consideran registros cuyo concepto sea &quot;Prisma&quot; o &quot;CABAL&quot;" style="rounded=0;whiteSpace=wrap;html=1;" vertex="1" parent="ivZ9lT4VuPYU5OSlLf_5-43">
          <mxGeometry x="80" width="370" height="100" as="geometry" />
        </mxCell>
        <mxCell id="ivZ9lT4VuPYU5OSlLf_5-79" style="edgeStyle=orthogonalEdgeStyle;rounded=0;orthogonalLoop=1;jettySize=auto;html=1;entryX=0.5;entryY=0;entryDx=0;entryDy=0;" edge="1" parent="ivZ9lT4VuPYU5OSlLf_5-43" source="ivZ9lT4VuPYU5OSlLf_5-41" target="ivZ9lT4VuPYU5OSlLf_5-42">
          <mxGeometry relative="1" as="geometry" />
        </mxCell>
        <mxCell id="ivZ9lT4VuPYU5OSlLf_5-41" value="Para egresos payway se crea la columna monto_bruto obtenida mediante la sumatoria (por registro) de comisiones_prisma + via + iibb" style="rounded=0;whiteSpace=wrap;html=1;" vertex="1" parent="ivZ9lT4VuPYU5OSlLf_5-43">
          <mxGeometry x="30" y="120" width="470" height="45" as="geometry" />
        </mxCell>
        <mxCell id="ivZ9lT4VuPYU5OSlLf_5-42" value="Se sumariza ingresos payway, egresos payway e ingresos prisma/cabal en la columna monto bruto, sumarizando por fecha de percibido.&lt;div&gt;&lt;br&gt;&lt;/div&gt;&lt;div&gt;Posteriormente se combinan las tablas sumarizado_dia_ingresos_pw,&amp;nbsp;&lt;span style=&quot;background-color: transparent; color: light-dark(rgb(0, 0, 0), rgb(255, 255, 255));&quot;&gt;sumarizado_dia_egresos_pw e ingresos_prisma_cabal, se crea una columna de diferencia haciendo una comparativa entre las columnas resultantes del cálculo anterior (ingresos_payway_monto_bruto -&amp;nbsp;&lt;/span&gt;&lt;span style=&quot;background-color: transparent; color: light-dark(rgb(0, 0, 0), rgb(255, 255, 255));&quot;&gt;egresos_payway_monto_bruto, banco_importe_ingresos&lt;/span&gt;&lt;span style=&quot;background-color: transparent; color: light-dark(rgb(0, 0, 0), rgb(255, 255, 255));&quot;&gt;)&lt;/span&gt;&lt;/div&gt;&lt;div&gt;&lt;span style=&quot;background-color: transparent; color: light-dark(rgb(0, 0, 0), rgb(255, 255, 255));&quot;&gt;&lt;br&gt;&lt;/span&gt;&lt;/div&gt;&lt;div&gt;&lt;span style=&quot;background-color: transparent; color: light-dark(rgb(0, 0, 0), rgb(255, 255, 255));&quot;&gt;El dataframe resultante se tomará como tabla de staging (falta filtrar registros con diferencia distinta de 0)&lt;/span&gt;&lt;/div&gt;" style="rounded=0;whiteSpace=wrap;html=1;" vertex="1" parent="ivZ9lT4VuPYU5OSlLf_5-43">
          <mxGeometry y="180" width="530" height="165" as="geometry" />
        </mxCell>
        <mxCell id="ivZ9lT4VuPYU5OSlLf_5-60" style="edgeStyle=orthogonalEdgeStyle;rounded=0;orthogonalLoop=1;jettySize=auto;html=1;entryX=0;entryY=0.5;entryDx=0;entryDy=0;" edge="1" parent="1" source="ivZ9lT4VuPYU5OSlLf_5-45" target="ivZ9lT4VuPYU5OSlLf_5-53">
          <mxGeometry relative="1" as="geometry" />
        </mxCell>
        <mxCell id="ivZ9lT4VuPYU5OSlLf_5-45" value="r_pay_vs_com" style="shape=cylinder3;whiteSpace=wrap;html=1;boundedLbl=1;backgroundOutline=1;size=15;" vertex="1" parent="1">
          <mxGeometry x="1450" y="90" width="100" height="80" as="geometry" />
        </mxCell>
        <mxCell id="ivZ9lT4VuPYU5OSlLf_5-76" style="edgeStyle=orthogonalEdgeStyle;rounded=0;orthogonalLoop=1;jettySize=auto;html=1;" edge="1" parent="1" source="ivZ9lT4VuPYU5OSlLf_5-46" target="ivZ9lT4VuPYU5OSlLf_5-52">
          <mxGeometry relative="1" as="geometry" />
        </mxCell>
        <mxCell id="ivZ9lT4VuPYU5OSlLf_5-46" value="r_pay_vs_ban" style="shape=cylinder3;whiteSpace=wrap;html=1;boundedLbl=1;backgroundOutline=1;size=15;" vertex="1" parent="1">
          <mxGeometry x="1461" y="560" width="100" height="80" as="geometry" />
        </mxCell>
        <mxCell id="ivZ9lT4VuPYU5OSlLf_5-47" style="edgeStyle=orthogonalEdgeStyle;rounded=0;orthogonalLoop=1;jettySize=auto;html=1;entryX=0;entryY=0;entryDx=0;entryDy=52.5;entryPerimeter=0;" edge="1" parent="1" source="ivZ9lT4VuPYU5OSlLf_5-42" target="ivZ9lT4VuPYU5OSlLf_5-46">
          <mxGeometry relative="1" as="geometry" />
        </mxCell>
        <mxCell id="ivZ9lT4VuPYU5OSlLf_5-48" style="edgeStyle=orthogonalEdgeStyle;rounded=0;orthogonalLoop=1;jettySize=auto;html=1;entryX=0;entryY=0.5;entryDx=0;entryDy=0;entryPerimeter=0;" edge="1" parent="1" source="ivZ9lT4VuPYU5OSlLf_5-36" target="ivZ9lT4VuPYU5OSlLf_5-45">
          <mxGeometry relative="1" as="geometry" />
        </mxCell>
        <mxCell id="ivZ9lT4VuPYU5OSlLf_5-49" value="Presenta Diferencias?" style="rhombus;whiteSpace=wrap;html=1;" vertex="1" parent="1">
          <mxGeometry x="1689" y="735" width="162" height="110" as="geometry" />
        </mxCell>
        <mxCell id="ivZ9lT4VuPYU5OSlLf_5-69" style="edgeStyle=orthogonalEdgeStyle;rounded=0;orthogonalLoop=1;jettySize=auto;html=1;exitX=1;exitY=0.5;exitDx=0;exitDy=0;entryX=0;entryY=0.5;entryDx=0;entryDy=0;" edge="1" parent="1" source="ivZ9lT4VuPYU5OSlLf_5-52" target="ivZ9lT4VuPYU5OSlLf_5-67">
          <mxGeometry relative="1" as="geometry" />
        </mxCell>
        <mxCell id="ivZ9lT4VuPYU5OSlLf_5-52" value="Cargar Payway Banco" style="shape=parallelogram;perimeter=parallelogramPerimeter;whiteSpace=wrap;html=1;fixedSize=1;" vertex="1" parent="1">
          <mxGeometry x="1920" y="570" width="220" height="60" as="geometry" />
        </mxCell>
        <mxCell id="ivZ9lT4VuPYU5OSlLf_5-65" style="edgeStyle=orthogonalEdgeStyle;rounded=0;orthogonalLoop=1;jettySize=auto;html=1;entryX=0;entryY=0.5;entryDx=0;entryDy=0;" edge="1" parent="1" source="ivZ9lT4VuPYU5OSlLf_5-53" target="ivZ9lT4VuPYU5OSlLf_5-64">
          <mxGeometry relative="1" as="geometry" />
        </mxCell>
        <mxCell id="ivZ9lT4VuPYU5OSlLf_5-53" value="Cargar Payway Comercio" style="shape=parallelogram;perimeter=parallelogramPerimeter;whiteSpace=wrap;html=1;fixedSize=1;" vertex="1" parent="1">
          <mxGeometry x="1665" y="90" width="210" height="80" as="geometry" />
        </mxCell>
        <mxCell id="ivZ9lT4VuPYU5OSlLf_5-54" value="Presenta Diferencias?" style="rhombus;whiteSpace=wrap;html=1;" vertex="1" parent="1">
          <mxGeometry x="1680" y="280" width="180" height="140" as="geometry" />
        </mxCell>
        <mxCell id="ivZ9lT4VuPYU5OSlLf_5-59" style="edgeStyle=orthogonalEdgeStyle;rounded=0;orthogonalLoop=1;jettySize=auto;html=1;" edge="1" parent="1" source="ivZ9lT4VuPYU5OSlLf_5-55" target="ivZ9lT4VuPYU5OSlLf_5-54">
          <mxGeometry relative="1" as="geometry" />
        </mxCell>
        <mxCell id="ivZ9lT4VuPYU5OSlLf_5-55" value="c_pay_vs_com" style="shape=cylinder3;whiteSpace=wrap;html=1;boundedLbl=1;backgroundOutline=1;size=15;" vertex="1" parent="1">
          <mxGeometry x="1450" y="310" width="100" height="80" as="geometry" />
        </mxCell>
        <mxCell id="ivZ9lT4VuPYU5OSlLf_5-56" style="edgeStyle=orthogonalEdgeStyle;rounded=0;orthogonalLoop=1;jettySize=auto;html=1;entryX=0;entryY=0;entryDx=0;entryDy=52.5;entryPerimeter=0;" edge="1" parent="1" source="ivZ9lT4VuPYU5OSlLf_5-36" target="ivZ9lT4VuPYU5OSlLf_5-55">
          <mxGeometry relative="1" as="geometry" />
        </mxCell>
        <mxCell id="ivZ9lT4VuPYU5OSlLf_5-61" style="edgeStyle=orthogonalEdgeStyle;rounded=0;orthogonalLoop=1;jettySize=auto;html=1;entryX=0.5;entryY=1;entryDx=0;entryDy=0;entryPerimeter=0;" edge="1" parent="1" source="ivZ9lT4VuPYU5OSlLf_5-54" target="ivZ9lT4VuPYU5OSlLf_5-45">
          <mxGeometry relative="1" as="geometry">
            <Array as="points">
              <mxPoint x="1770" y="240" />
              <mxPoint x="1500" y="240" />
            </Array>
          </mxGeometry>
        </mxCell>
        <mxCell id="ivZ9lT4VuPYU5OSlLf_5-62" value="No" style="edgeLabel;html=1;align=center;verticalAlign=middle;resizable=0;points=[];" vertex="1" connectable="0" parent="ivZ9lT4VuPYU5OSlLf_5-61">
          <mxGeometry x="-0.4699" relative="1" as="geometry">
            <mxPoint as="offset" />
          </mxGeometry>
        </mxCell>
        <mxCell id="ivZ9lT4VuPYU5OSlLf_5-63" value="La tabla r_pay_vs_com contiene todos los registros de payway correspondientes a movimientos de comercio (que fueron validados al no existir diferencias" style="shape=note;whiteSpace=wrap;html=1;backgroundOutline=1;darkOpacity=0.05;" vertex="1" parent="1">
          <mxGeometry x="1530" y="-60" width="280" height="120" as="geometry" />
        </mxCell>
        <mxCell id="ivZ9lT4VuPYU5OSlLf_5-64" value="CA OBT" style="shape=document;whiteSpace=wrap;html=1;boundedLbl=1;" vertex="1" parent="1">
          <mxGeometry x="2000" y="90" width="120" height="80" as="geometry" />
        </mxCell>
        <mxCell id="ivZ9lT4VuPYU5OSlLf_5-66" value="La tabla r_pay_vs_ban contiene todos los registros de payway correspondientes a movimientos de comercio (que fueron validados al no existir diferencias" style="shape=note;whiteSpace=wrap;html=1;backgroundOutline=1;darkOpacity=0.05;" vertex="1" parent="1">
          <mxGeometry x="1900" y="440" width="280" height="120" as="geometry" />
        </mxCell>
        <mxCell id="ivZ9lT4VuPYU5OSlLf_5-67" value="CA OBT" style="shape=document;whiteSpace=wrap;html=1;boundedLbl=1;" vertex="1" parent="1">
          <mxGeometry x="2260" y="560" width="120" height="80" as="geometry" />
        </mxCell>
        <mxCell id="ivZ9lT4VuPYU5OSlLf_5-73" style="edgeStyle=orthogonalEdgeStyle;rounded=0;orthogonalLoop=1;jettySize=auto;html=1;" edge="1" parent="1" source="ivZ9lT4VuPYU5OSlLf_5-71" target="ivZ9lT4VuPYU5OSlLf_5-49">
          <mxGeometry relative="1" as="geometry" />
        </mxCell>
        <mxCell id="ivZ9lT4VuPYU5OSlLf_5-71" value="c_pay_vs_ban" style="shape=cylinder3;whiteSpace=wrap;html=1;boundedLbl=1;backgroundOutline=1;size=15;" vertex="1" parent="1">
          <mxGeometry x="1461" y="750" width="100" height="80" as="geometry" />
        </mxCell>
        <mxCell id="ivZ9lT4VuPYU5OSlLf_5-72" style="edgeStyle=orthogonalEdgeStyle;rounded=0;orthogonalLoop=1;jettySize=auto;html=1;entryX=0;entryY=0.5;entryDx=0;entryDy=0;entryPerimeter=0;" edge="1" parent="1" source="ivZ9lT4VuPYU5OSlLf_5-42" target="ivZ9lT4VuPYU5OSlLf_5-71">
          <mxGeometry relative="1" as="geometry" />
        </mxCell>
        <mxCell id="ivZ9lT4VuPYU5OSlLf_5-74" style="edgeStyle=orthogonalEdgeStyle;rounded=0;orthogonalLoop=1;jettySize=auto;html=1;entryX=0.5;entryY=1;entryDx=0;entryDy=0;entryPerimeter=0;" edge="1" parent="1" source="ivZ9lT4VuPYU5OSlLf_5-49" target="ivZ9lT4VuPYU5OSlLf_5-46">
          <mxGeometry relative="1" as="geometry">
            <Array as="points">
              <mxPoint x="1770" y="700" />
              <mxPoint x="1511" y="700" />
            </Array>
          </mxGeometry>
        </mxCell>
        <mxCell id="ivZ9lT4VuPYU5OSlLf_5-75" value="No" style="edgeLabel;html=1;align=center;verticalAlign=middle;resizable=0;points=[];" vertex="1" connectable="0" parent="ivZ9lT4VuPYU5OSlLf_5-74">
          <mxGeometry x="-0.0819" y="1" relative="1" as="geometry">
            <mxPoint as="offset" />
          </mxGeometry>
        </mxCell>
        <mxCell id="ivZ9lT4VuPYU5OSlLf_5-85" value="Crear Reporte MP (API)&lt;div&gt;Parámetros de ingreso:&lt;/div&gt;&lt;div&gt;&lt;ul&gt;&lt;li&gt;FECHA_DESDE&lt;/li&gt;&lt;li&gt;FECHA_HASTA&lt;/li&gt;&lt;/ul&gt;&lt;/div&gt;" style="rounded=1;whiteSpace=wrap;html=1;" vertex="1" parent="1">
          <mxGeometry x="100" y="585" width="170" height="105" as="geometry" />
        </mxCell>
      </root>
    </mxGraphModel>
  </diagram>
</mxfile>
